<svg width="1113" height="232" viewBox="0 0 1113 232" fill="none" xmlns="http://www.w3.org/2000/svg">
<g clip-path="url(#clip0_313_526)">
<path d="M357.761 50.4476H368.882V73.3664H354.486C343.204 73.3664 334.79 76.08 329.213 81.5237C323.669 86.951 320.881 95.8766 320.881 108.284V183.432H298.153V50.9707H320.881V72.1077C320.881 73.301 321.481 73.8895 322.648 73.8895C323.313 73.8895 323.815 73.726 324.172 73.3828C324.528 73.0395 324.836 72.3692 325.193 71.3394C329.57 57.4279 340.448 50.4639 357.777 50.4639H357.761V50.4476ZM508.945 78.8427C514.911 89.4521 517.91 102.236 517.91 117.177C517.91 132.118 514.927 144.902 508.945 155.511C502.963 166.121 495.214 174.065 485.698 179.329C476.183 184.593 465.953 187.225 455.011 187.225C433.45 187.225 418.293 178.561 409.539 161.233C408.874 159.876 408.015 159.189 407.01 159.189C406.005 159.189 405.486 159.696 405.486 160.726V231.804H382.758V50.9543H405.486V73.628C405.486 74.6415 405.989 75.1646 407.01 75.1646C408.031 75.1646 408.858 74.4944 409.539 73.1212C418.293 55.7931 433.45 47.1291 455.011 47.1291C465.953 47.1291 476.183 49.761 485.698 55.0248C495.214 60.2886 502.947 68.2334 508.945 78.8427ZM495.198 117.177C495.198 101.549 491.032 89.3704 482.699 80.6246C474.367 71.8788 463.392 67.5141 449.726 67.5141C436.06 67.5141 425.085 71.8952 416.753 80.6246C408.404 89.3704 405.357 101.565 405.357 117.177C405.357 132.789 408.42 144.984 416.753 153.729C425.085 162.492 436.076 166.84 449.726 166.84C463.376 166.84 474.367 162.459 482.699 153.729C491.032 145 495.198 132.789 495.198 117.177ZM126.17 79.0389C132.136 89.6483 135.135 102.432 135.135 117.373C135.135 132.315 132.152 145.098 126.17 155.707C120.188 166.317 112.44 174.262 102.924 179.525C93.4079 184.789 83.1787 187.421 72.2363 187.421C50.6756 187.421 35.5183 178.757 26.7644 161.429C26.0997 160.072 25.2406 159.386 24.2355 159.386C23.2304 159.386 22.7116 159.892 22.7116 160.922V232H0V51.1505H22.7279V73.8241C22.7279 74.8377 23.2304 75.3608 24.2517 75.3608C25.273 75.3608 26.0998 74.6905 26.7806 73.3174C35.5346 55.9893 50.6919 47.3253 72.2525 47.3253C83.195 47.3253 93.4241 49.9572 102.94 55.221C112.456 60.4848 120.189 68.4295 126.187 79.0389H126.17ZM112.407 117.373C112.407 101.745 108.241 89.5665 99.9085 80.8207C91.5761 72.0913 80.585 67.7103 66.9353 67.7103C53.2856 67.7103 42.2945 72.0913 33.9621 80.8207C25.6296 89.5829 22.5657 101.762 22.5657 117.373C22.5657 132.985 25.6296 145.18 33.9621 153.926C42.2945 162.688 53.2694 167.036 66.9353 167.036C80.6012 167.036 91.5761 162.655 99.9085 153.926C108.241 145.196 112.407 132.985 112.407 117.373ZM257.982 141.355H281.975C278.781 153.762 272.248 164.502 262.408 173.575C252.551 182.664 238.448 187.192 220.081 187.192C206.269 187.192 194.111 184.348 183.59 178.659C173.069 172.97 164.947 164.878 159.208 154.334C153.47 143.807 150.617 131.415 150.617 117.144C150.617 102.873 153.405 90.482 158.949 79.9543C164.493 69.4267 172.291 61.3185 182.309 55.6297C192.328 49.9408 204.064 47.0964 217.536 47.0964C231.007 47.0964 242.176 49.9081 251.514 55.4989C260.868 61.106 267.838 68.544 272.475 77.7802C277.111 87.049 279.413 97.1843 279.413 108.219V123.503H174.593C175.419 136.745 179.861 147.289 187.853 155.086C195.845 162.9 206.593 166.807 220.065 166.807C231.007 166.807 239.404 164.568 245.208 160.056C251.011 155.544 255.259 149.316 257.966 141.322L257.982 141.355ZM174.123 104.426H253.443C253.443 92.885 250.493 83.8286 244.592 77.2897C238.691 70.7672 229.435 67.4814 216.806 67.4814C205.021 67.4814 195.375 70.6691 187.886 77.0445C180.396 83.4036 175.809 92.5417 174.123 104.426ZM536.244 183.4H558.988V0H536.244V183.416V183.4ZM855.893 36.487H882.447V7.81398H855.893V36.487ZM953.954 163.669C949.82 164.094 947.323 164.306 946.497 164.306C945.329 164.306 944.373 163.963 943.708 163.276C943.044 162.606 942.687 161.674 942.687 160.464C942.687 159.631 942.914 157.113 943.336 152.945C943.741 148.793 943.968 142.368 943.968 133.72V70.3422H976.39L970.003 50.938H943.984V15.2683H921.256V50.9216H896.534V70.3258H921.256V140.063C921.256 154.678 924.806 165.548 931.874 172.676C938.942 179.803 949.723 183.383 964.215 183.383H981.901V163.015H973.05C964.458 163.015 958.104 163.227 953.97 163.652L953.954 163.669ZM1091.34 50.938L1053.7 162.083C1053.2 163.456 1052.4 165.238 1049.83 165.238C1047.25 165.238 1046.44 163.456 1045.93 162.083L1008.29 50.938H985.111L1028.7 183.4H1044.12C1045.12 183.4 1045.89 183.498 1046.41 183.661C1046.91 183.825 1047.33 184.25 1047.67 184.936C1048.33 185.95 1048.25 187.486 1047.41 189.514L1040.34 208.869C1039.32 211.419 1037.39 212.694 1034.54 212.694C1033.52 212.694 1031.17 212.481 1027.47 212.056C1023.76 211.631 1018.98 211.419 1013.08 211.419H994.627V231.787H1018.88C1033.03 231.787 1041.54 229.368 1048.87 224.529C1056.2 219.691 1061.87 211.157 1065.92 198.93L1113 56.022V50.938H1091.37H1091.34ZM778.956 100.356L743.34 50.938H718.327V56.022L761.01 113.335L708.973 178.299V183.383H734.489L775.924 130.14L814.571 183.383H839.082V178.299L793.854 117.161L842.876 56.2835V50.938H817.36L778.972 100.356H778.956ZM858.309 183.4H881.053V50.9543H858.309V183.416V183.4ZM708.665 141.355C705.455 153.762 698.938 164.502 689.098 173.575C679.242 182.664 665.138 187.192 646.771 187.192C632.959 187.192 620.801 184.348 610.28 178.659C599.743 172.97 591.637 164.878 585.899 154.334C580.176 143.807 577.323 131.415 577.323 117.144C577.323 102.873 580.111 90.482 585.656 79.9543C591.216 69.4267 598.997 61.3185 609.016 55.6297C619.034 49.9408 630.771 47.0964 644.258 47.0964C657.746 47.0964 668.899 49.9081 678.253 55.4989C687.59 61.106 694.577 68.544 699.214 77.7802C703.85 87.049 706.152 97.1843 706.152 108.219V123.503H601.315C602.158 136.745 606.584 147.289 614.576 155.086C622.568 162.9 633.316 166.807 646.787 166.807C657.73 166.807 666.127 164.568 671.931 160.056C677.734 155.544 681.981 149.316 684.672 141.322H708.681L708.665 141.355ZM601.38 104.426H680.701C680.701 92.885 677.75 83.8286 671.866 77.2897C665.965 70.7672 656.709 67.4814 644.08 67.4814C632.295 67.4814 622.649 70.6691 615.16 77.0445C607.67 83.4036 603.066 92.5417 601.396 104.426H601.38Z" fill="black"/>
</g>
<defs>
<clipPath id="clip0_313_526">
<rect width="1113" height="232" fill="white"/>
</clipPath>
</defs>
</svg>
