<svg aria-hidden="true" focusable="false" data-prefix="fak" data-icon="sources" class="svg-inline--fa fa-sources fa-fw " role="img" xmlns="http://www.w3.org/2000/svg" viewBox="0 0 512 512"><path fill="currentColor" d="M262.4 32a76.8 76.8 0 1 1 0 153.6 76.8 76.8 0 1 1 0-153.6zm0 51.2a25.6 25.6 0 1 0 0 51.2 25.6 25.6 0 1 0 0-51.2zM416 185.6a76.8 76.8 0 1 1 0 153.6 76.8 76.8 0 1 1 0-153.6zm0 51.2a25.6 25.6 0 1 0 0 51.2 25.6 25.6 0 1 0 0-51.2zM108.8 185.6a76.8 76.8 0 1 1 0 153.6 76.8 76.8 0 1 1 0-153.6zm0 51.2a25.6 25.6 0 1 0 0 51.2 25.6 25.6 0 1 0 0-51.2zM262.4 339.2a76.8 76.8 0 1 1 0 153.6 76.8 76.8 0 1 1 0-153.6zm0 51.2a25.6 25.6 0 1 0 0 51.2 25.6 25.6 0 1 0 0-51.2z"/></svg>